<?xml version="1.0" standalone="no"?>
<!DOCTYPE svg PUBLIC "-//W3C//DTD SVG 20010904//EN"
 "http://www.w3.org/TR/2001/REC-SVG-20010904/DTD/svg10.dtd">
<svg version="1.0" xmlns="http://www.w3.org/2000/svg"
 width="260.000000pt" height="260.000000pt" viewBox="0 0 260.000000 260.000000"
 preserveAspectRatio="xMidYMid meet">
<metadata>
Created by potrace 1.14, written by Peter Selinger 2001-2017
</metadata>
<g transform="translate(0.000000,260.000000) scale(0.100000,-0.100000)"
fill="#000000" stroke="none">
<path d="M0 1300 l0 -1300 1300 0 1300 0 0 1300 0 1300 -1300 0 -1300 0 0
-1300z m2011 510 c192 -36 358 -197 404 -392 65 -277 -109 -557 -386 -623
-360 -84 -691 228 -629 594 47 282 327 474 611 421z m-1438 -214 l171 -164
164 157 c89 86 173 160 186 165 51 19 116 -35 116 -95 0 -16 -51 -74 -167
-191 l-167 -168 156 -158 c86 -86 161 -167 168 -180 27 -54 -21 -122 -88 -122
-33 0 -50 14 -201 165 l-166 164 -166 -164 c-155 -154 -169 -165 -203 -165
-50 0 -96 44 -96 91 0 29 20 52 167 201 l167 168 -167 168 c-175 176 -182 188
-153 241 16 28 52 50 84 51 16 0 73 -48 195 -164z"/>
<path d="M1825 1667 c-153 -40 -258 -154 -285 -309 -28 -162 57 -326 208 -400
62 -31 74 -33 167 -33 90 0 106 3 160 29 76 38 149 110 183 184 24 50 27 69
27 162 0 99 -2 109 -32 166 -82 156 -266 243 -428 201z"/>
</g>
</svg>
